<mxfile host="Electron" agent="Mozilla/5.0 (X11; Linux x86_64) AppleWebKit/537.36 (KHTML, like Gecko) draw.io/26.0.16 Chrome/132.0.6834.196 Electron/34.2.0 Safari/537.36" version="26.0.16">
  <diagram name="Page-1" id="M0qV1JgQrztClzObmAqI">
    <mxGraphModel dx="2868" dy="1670" grid="1" gridSize="10" guides="1" tooltips="1" connect="1" arrows="1" fold="1" page="1" pageScale="1" pageWidth="850" pageHeight="1100" math="0" shadow="0">
      <root>
        <mxCell id="0" />
        <mxCell id="1" parent="0" />
        <mxCell id="UVezICtJcRIL6f-ogG2M-3" style="edgeStyle=orthogonalEdgeStyle;rounded=0;orthogonalLoop=1;jettySize=auto;html=1;exitX=0.5;exitY=1;exitDx=0;exitDy=0;entryX=0.5;entryY=0;entryDx=0;entryDy=0;" edge="1" parent="1" source="UVezICtJcRIL6f-ogG2M-1" target="UVezICtJcRIL6f-ogG2M-2">
          <mxGeometry relative="1" as="geometry" />
        </mxCell>
        <mxCell id="UVezICtJcRIL6f-ogG2M-1" value="Bubble sort" style="ellipse;whiteSpace=wrap;html=1;" vertex="1" parent="1">
          <mxGeometry x="360" y="60" width="120" height="80" as="geometry" />
        </mxCell>
        <mxCell id="UVezICtJcRIL6f-ogG2M-5" style="edgeStyle=orthogonalEdgeStyle;rounded=0;orthogonalLoop=1;jettySize=auto;html=1;exitX=0.5;exitY=1;exitDx=0;exitDy=0;entryX=0.5;entryY=0;entryDx=0;entryDy=0;" edge="1" parent="1" source="UVezICtJcRIL6f-ogG2M-2" target="UVezICtJcRIL6f-ogG2M-4">
          <mxGeometry relative="1" as="geometry" />
        </mxCell>
        <mxCell id="UVezICtJcRIL6f-ogG2M-2" value="arr" style="shape=parallelogram;perimeter=parallelogramPerimeter;whiteSpace=wrap;html=1;fixedSize=1;" vertex="1" parent="1">
          <mxGeometry x="360" y="180" width="120" height="60" as="geometry" />
        </mxCell>
        <mxCell id="UVezICtJcRIL6f-ogG2M-8" style="edgeStyle=orthogonalEdgeStyle;rounded=0;orthogonalLoop=1;jettySize=auto;html=1;exitX=0.5;exitY=1;exitDx=0;exitDy=0;entryX=0.5;entryY=0;entryDx=0;entryDy=0;" edge="1" parent="1" source="UVezICtJcRIL6f-ogG2M-4" target="UVezICtJcRIL6f-ogG2M-7">
          <mxGeometry relative="1" as="geometry" />
        </mxCell>
        <mxCell id="UVezICtJcRIL6f-ogG2M-4" value="i = 0&lt;div&gt;j = 1&lt;/div&gt;" style="rounded=0;whiteSpace=wrap;html=1;" vertex="1" parent="1">
          <mxGeometry x="360" y="290" width="120" height="60" as="geometry" />
        </mxCell>
        <mxCell id="UVezICtJcRIL6f-ogG2M-9" style="edgeStyle=orthogonalEdgeStyle;rounded=0;orthogonalLoop=1;jettySize=auto;html=1;exitX=0.5;exitY=1;exitDx=0;exitDy=0;entryX=0.5;entryY=0;entryDx=0;entryDy=0;" edge="1" parent="1" source="UVezICtJcRIL6f-ogG2M-7">
          <mxGeometry relative="1" as="geometry">
            <mxPoint x="425" y="470" as="targetPoint" />
          </mxGeometry>
        </mxCell>
        <mxCell id="UVezICtJcRIL6f-ogG2M-7" value="count = 1&lt;div&gt;len = 0&lt;/div&gt;" style="rounded=0;whiteSpace=wrap;html=1;" vertex="1" parent="1">
          <mxGeometry x="360" y="380" width="120" height="60" as="geometry" />
        </mxCell>
        <mxCell id="UVezICtJcRIL6f-ogG2M-13" style="edgeStyle=orthogonalEdgeStyle;rounded=0;orthogonalLoop=1;jettySize=auto;html=1;exitX=0.5;exitY=1;exitDx=0;exitDy=0;entryX=0.5;entryY=0;entryDx=0;entryDy=0;" edge="1" parent="1" source="UVezICtJcRIL6f-ogG2M-11" target="UVezICtJcRIL6f-ogG2M-12">
          <mxGeometry relative="1" as="geometry" />
        </mxCell>
        <mxCell id="UVezICtJcRIL6f-ogG2M-69" style="edgeStyle=orthogonalEdgeStyle;rounded=0;orthogonalLoop=1;jettySize=auto;html=1;exitX=1;exitY=0.5;exitDx=0;exitDy=0;" edge="1" parent="1" source="UVezICtJcRIL6f-ogG2M-11" target="UVezICtJcRIL6f-ogG2M-67">
          <mxGeometry relative="1" as="geometry" />
        </mxCell>
        <mxCell id="UVezICtJcRIL6f-ogG2M-11" value="while arr[i] != /0" style="shape=hexagon;perimeter=hexagonPerimeter2;whiteSpace=wrap;html=1;fixedSize=1;" vertex="1" parent="1">
          <mxGeometry x="365" y="470" width="120" height="80" as="geometry" />
        </mxCell>
        <mxCell id="UVezICtJcRIL6f-ogG2M-18" style="edgeStyle=orthogonalEdgeStyle;rounded=0;orthogonalLoop=1;jettySize=auto;html=1;exitX=0;exitY=0.5;exitDx=0;exitDy=0;entryX=1;entryY=0.5;entryDx=0;entryDy=0;" edge="1" parent="1" source="UVezICtJcRIL6f-ogG2M-12" target="UVezICtJcRIL6f-ogG2M-17">
          <mxGeometry relative="1" as="geometry" />
        </mxCell>
        <mxCell id="UVezICtJcRIL6f-ogG2M-12" value="len += 1" style="rounded=0;whiteSpace=wrap;html=1;" vertex="1" parent="1">
          <mxGeometry x="365" y="610" width="120" height="60" as="geometry" />
        </mxCell>
        <mxCell id="UVezICtJcRIL6f-ogG2M-24" style="edgeStyle=orthogonalEdgeStyle;rounded=0;orthogonalLoop=1;jettySize=auto;html=1;exitX=0.5;exitY=1;exitDx=0;exitDy=0;entryX=0.5;entryY=0;entryDx=0;entryDy=0;" edge="1" parent="1" source="UVezICtJcRIL6f-ogG2M-15" target="UVezICtJcRIL6f-ogG2M-23">
          <mxGeometry relative="1" as="geometry" />
        </mxCell>
        <mxCell id="UVezICtJcRIL6f-ogG2M-55" style="edgeStyle=orthogonalEdgeStyle;rounded=0;orthogonalLoop=1;jettySize=auto;html=1;exitX=0;exitY=0.5;exitDx=0;exitDy=0;entryX=0.5;entryY=0;entryDx=0;entryDy=0;" edge="1" parent="1" source="UVezICtJcRIL6f-ogG2M-15" target="UVezICtJcRIL6f-ogG2M-54">
          <mxGeometry relative="1" as="geometry" />
        </mxCell>
        <mxCell id="UVezICtJcRIL6f-ogG2M-15" value="Reapet len times" style="shape=hexagon;perimeter=hexagonPerimeter2;whiteSpace=wrap;html=1;fixedSize=1;" vertex="1" parent="1">
          <mxGeometry x="830" y="880" width="120" height="80" as="geometry" />
        </mxCell>
        <mxCell id="UVezICtJcRIL6f-ogG2M-19" style="edgeStyle=orthogonalEdgeStyle;rounded=0;orthogonalLoop=1;jettySize=auto;html=1;exitX=0.5;exitY=0;exitDx=0;exitDy=0;entryX=0;entryY=0.5;entryDx=0;entryDy=0;" edge="1" parent="1" source="UVezICtJcRIL6f-ogG2M-17" target="UVezICtJcRIL6f-ogG2M-11">
          <mxGeometry relative="1" as="geometry" />
        </mxCell>
        <mxCell id="UVezICtJcRIL6f-ogG2M-17" value="i++" style="rounded=0;whiteSpace=wrap;html=1;" vertex="1" parent="1">
          <mxGeometry x="190" y="610" width="120" height="60" as="geometry" />
        </mxCell>
        <mxCell id="UVezICtJcRIL6f-ogG2M-53" style="edgeStyle=orthogonalEdgeStyle;rounded=0;orthogonalLoop=1;jettySize=auto;html=1;exitX=0.5;exitY=1;exitDx=0;exitDy=0;entryX=0.5;entryY=0;entryDx=0;entryDy=0;" edge="1" parent="1" source="UVezICtJcRIL6f-ogG2M-20" target="UVezICtJcRIL6f-ogG2M-15">
          <mxGeometry relative="1" as="geometry" />
        </mxCell>
        <mxCell id="UVezICtJcRIL6f-ogG2M-20" value="i = 0" style="rounded=0;whiteSpace=wrap;html=1;" vertex="1" parent="1">
          <mxGeometry x="830" y="730" width="120" height="60" as="geometry" />
        </mxCell>
        <mxCell id="UVezICtJcRIL6f-ogG2M-34" style="edgeStyle=orthogonalEdgeStyle;rounded=0;orthogonalLoop=1;jettySize=auto;html=1;exitX=0.5;exitY=1;exitDx=0;exitDy=0;entryX=0.5;entryY=0;entryDx=0;entryDy=0;" edge="1" parent="1" source="UVezICtJcRIL6f-ogG2M-23" target="UVezICtJcRIL6f-ogG2M-32">
          <mxGeometry relative="1" as="geometry" />
        </mxCell>
        <mxCell id="UVezICtJcRIL6f-ogG2M-59" style="edgeStyle=orthogonalEdgeStyle;rounded=0;orthogonalLoop=1;jettySize=auto;html=1;exitX=1;exitY=0.5;exitDx=0;exitDy=0;" edge="1" parent="1" source="UVezICtJcRIL6f-ogG2M-23">
          <mxGeometry relative="1" as="geometry">
            <mxPoint x="1000" y="1061" as="targetPoint" />
          </mxGeometry>
        </mxCell>
        <mxCell id="UVezICtJcRIL6f-ogG2M-23" value="arr[ i ] == arr[&amp;nbsp; j&amp;nbsp; ]" style="rhombus;whiteSpace=wrap;html=1;" vertex="1" parent="1">
          <mxGeometry x="840" y="1020" width="110" height="82" as="geometry" />
        </mxCell>
        <mxCell id="UVezICtJcRIL6f-ogG2M-51" style="edgeStyle=orthogonalEdgeStyle;rounded=0;orthogonalLoop=1;jettySize=auto;html=1;exitX=0.5;exitY=0;exitDx=0;exitDy=0;entryX=1;entryY=0.5;entryDx=0;entryDy=0;" edge="1" parent="1" source="UVezICtJcRIL6f-ogG2M-26" target="UVezICtJcRIL6f-ogG2M-15">
          <mxGeometry relative="1" as="geometry" />
        </mxCell>
        <mxCell id="UVezICtJcRIL6f-ogG2M-26" value="i += 1&lt;div&gt;j += 1&lt;/div&gt;" style="rounded=0;whiteSpace=wrap;html=1;" vertex="1" parent="1">
          <mxGeometry x="1050" y="1031" width="120" height="60" as="geometry" />
        </mxCell>
        <mxCell id="UVezICtJcRIL6f-ogG2M-40" style="edgeStyle=orthogonalEdgeStyle;rounded=0;orthogonalLoop=1;jettySize=auto;html=1;exitX=0.5;exitY=1;exitDx=0;exitDy=0;entryX=0.5;entryY=0;entryDx=0;entryDy=0;" edge="1" parent="1" source="UVezICtJcRIL6f-ogG2M-32" target="UVezICtJcRIL6f-ogG2M-39">
          <mxGeometry relative="1" as="geometry" />
        </mxCell>
        <mxCell id="UVezICtJcRIL6f-ogG2M-52" style="edgeStyle=orthogonalEdgeStyle;rounded=0;orthogonalLoop=1;jettySize=auto;html=1;exitX=1;exitY=0.5;exitDx=0;exitDy=0;entryX=0;entryY=0.5;entryDx=0;entryDy=0;" edge="1" parent="1" source="UVezICtJcRIL6f-ogG2M-32" target="UVezICtJcRIL6f-ogG2M-26">
          <mxGeometry relative="1" as="geometry" />
        </mxCell>
        <mxCell id="UVezICtJcRIL6f-ogG2M-32" value="arr[ i ]&amp;nbsp; &amp;nbsp;&amp;gt;&amp;nbsp; arr[ j ]" style="rhombus;whiteSpace=wrap;html=1;" vertex="1" parent="1">
          <mxGeometry x="840" y="1148" width="110" height="92" as="geometry" />
        </mxCell>
        <mxCell id="UVezICtJcRIL6f-ogG2M-38" value="N" style="text;html=1;align=center;verticalAlign=middle;resizable=0;points=[];autosize=1;strokeColor=none;fillColor=none;" vertex="1" parent="1">
          <mxGeometry x="950" y="1160" width="30" height="30" as="geometry" />
        </mxCell>
        <mxCell id="UVezICtJcRIL6f-ogG2M-42" style="edgeStyle=orthogonalEdgeStyle;rounded=0;orthogonalLoop=1;jettySize=auto;html=1;exitX=0.5;exitY=1;exitDx=0;exitDy=0;entryX=0.5;entryY=0;entryDx=0;entryDy=0;" edge="1" parent="1" source="UVezICtJcRIL6f-ogG2M-39" target="UVezICtJcRIL6f-ogG2M-41">
          <mxGeometry relative="1" as="geometry" />
        </mxCell>
        <mxCell id="UVezICtJcRIL6f-ogG2M-39" value="count += 1" style="rounded=0;whiteSpace=wrap;html=1;" vertex="1" parent="1">
          <mxGeometry x="830" y="1292" width="120" height="60" as="geometry" />
        </mxCell>
        <mxCell id="UVezICtJcRIL6f-ogG2M-50" style="edgeStyle=orthogonalEdgeStyle;rounded=0;orthogonalLoop=1;jettySize=auto;html=1;exitX=1;exitY=0.5;exitDx=0;exitDy=0;" edge="1" parent="1" source="UVezICtJcRIL6f-ogG2M-41">
          <mxGeometry relative="1" as="geometry">
            <mxPoint x="990" y="1270" as="targetPoint" />
            <Array as="points">
              <mxPoint x="991" y="1442" />
            </Array>
          </mxGeometry>
        </mxCell>
        <mxCell id="UVezICtJcRIL6f-ogG2M-41" value="x = arr[ i ]&lt;div&gt;arr [ i ] = arr[ j ]&lt;/div&gt;&lt;div&gt;arr[ j ] = x&lt;/div&gt;" style="rounded=0;whiteSpace=wrap;html=1;" vertex="1" parent="1">
          <mxGeometry x="830" y="1412" width="120" height="60" as="geometry" />
        </mxCell>
        <mxCell id="UVezICtJcRIL6f-ogG2M-44" value="Y" style="text;html=1;align=center;verticalAlign=middle;resizable=0;points=[];autosize=1;strokeColor=none;fillColor=none;" vertex="1" parent="1">
          <mxGeometry x="905" y="1240" width="30" height="30" as="geometry" />
        </mxCell>
        <mxCell id="UVezICtJcRIL6f-ogG2M-45" value="N" style="text;html=1;align=center;verticalAlign=middle;resizable=0;points=[];autosize=1;strokeColor=none;fillColor=none;" vertex="1" parent="1">
          <mxGeometry x="830" y="1102" width="30" height="30" as="geometry" />
        </mxCell>
        <mxCell id="UVezICtJcRIL6f-ogG2M-46" value="5;2;7;8;8;12,;10;3" style="text;html=1;align=center;verticalAlign=middle;resizable=0;points=[];autosize=1;strokeColor=none;fillColor=none;" vertex="1" parent="1">
          <mxGeometry x="1020" y="870" width="120" height="30" as="geometry" />
        </mxCell>
        <mxCell id="UVezICtJcRIL6f-ogG2M-56" style="edgeStyle=orthogonalEdgeStyle;rounded=0;orthogonalLoop=1;jettySize=auto;html=1;exitX=0;exitY=0.5;exitDx=0;exitDy=0;" edge="1" parent="1" source="UVezICtJcRIL6f-ogG2M-54">
          <mxGeometry relative="1" as="geometry">
            <mxPoint x="890" y="830" as="targetPoint" />
            <Array as="points">
              <mxPoint x="650" y="1020" />
              <mxPoint x="650" y="886" />
              <mxPoint x="831" y="886" />
              <mxPoint x="831" y="820" />
              <mxPoint x="890" y="820" />
            </Array>
          </mxGeometry>
        </mxCell>
        <mxCell id="UVezICtJcRIL6f-ogG2M-57" style="edgeStyle=orthogonalEdgeStyle;rounded=0;orthogonalLoop=1;jettySize=auto;html=1;exitX=0.5;exitY=1;exitDx=0;exitDy=0;" edge="1" parent="1" source="UVezICtJcRIL6f-ogG2M-54">
          <mxGeometry relative="1" as="geometry">
            <mxPoint x="710" y="1160" as="targetPoint" />
          </mxGeometry>
        </mxCell>
        <mxCell id="UVezICtJcRIL6f-ogG2M-54" value="count &amp;gt;= 2" style="rhombus;whiteSpace=wrap;html=1;" vertex="1" parent="1">
          <mxGeometry x="670" y="980" width="80" height="80" as="geometry" />
        </mxCell>
        <mxCell id="UVezICtJcRIL6f-ogG2M-66" style="edgeStyle=orthogonalEdgeStyle;rounded=0;orthogonalLoop=1;jettySize=auto;html=1;exitX=0.5;exitY=1;exitDx=0;exitDy=0;entryX=0.5;entryY=0;entryDx=0;entryDy=0;" edge="1" parent="1" source="UVezICtJcRIL6f-ogG2M-58" target="UVezICtJcRIL6f-ogG2M-65">
          <mxGeometry relative="1" as="geometry" />
        </mxCell>
        <mxCell id="UVezICtJcRIL6f-ogG2M-58" value="print arr" style="shape=parallelogram;perimeter=parallelogramPerimeter;whiteSpace=wrap;html=1;fixedSize=1;" vertex="1" parent="1">
          <mxGeometry x="650" y="1160" width="120" height="60" as="geometry" />
        </mxCell>
        <mxCell id="UVezICtJcRIL6f-ogG2M-60" value="A" style="ellipse;whiteSpace=wrap;html=1;aspect=fixed;" vertex="1" parent="1">
          <mxGeometry x="970" y="1230" width="35" height="35" as="geometry" />
        </mxCell>
        <mxCell id="UVezICtJcRIL6f-ogG2M-63" style="edgeStyle=orthogonalEdgeStyle;rounded=0;orthogonalLoop=1;jettySize=auto;html=1;exitX=0.5;exitY=1;exitDx=0;exitDy=0;" edge="1" parent="1" source="UVezICtJcRIL6f-ogG2M-62">
          <mxGeometry relative="1" as="geometry">
            <mxPoint x="998" y="1060" as="targetPoint" />
          </mxGeometry>
        </mxCell>
        <mxCell id="UVezICtJcRIL6f-ogG2M-62" value="A" style="ellipse;whiteSpace=wrap;html=1;aspect=fixed;" vertex="1" parent="1">
          <mxGeometry x="980" y="985" width="35" height="35" as="geometry" />
        </mxCell>
        <mxCell id="UVezICtJcRIL6f-ogG2M-64" value="Y" style="text;html=1;align=center;verticalAlign=middle;resizable=0;points=[];autosize=1;strokeColor=none;fillColor=none;" vertex="1" parent="1">
          <mxGeometry x="655" y="958" width="30" height="30" as="geometry" />
        </mxCell>
        <mxCell id="UVezICtJcRIL6f-ogG2M-65" value="End" style="ellipse;whiteSpace=wrap;html=1;" vertex="1" parent="1">
          <mxGeometry x="650" y="1260" width="120" height="80" as="geometry" />
        </mxCell>
        <mxCell id="UVezICtJcRIL6f-ogG2M-73" style="edgeStyle=orthogonalEdgeStyle;rounded=0;orthogonalLoop=1;jettySize=auto;html=1;exitX=0.5;exitY=1;exitDx=0;exitDy=0;" edge="1" parent="1" source="UVezICtJcRIL6f-ogG2M-67">
          <mxGeometry relative="1" as="geometry">
            <mxPoint x="710" y="1140" as="targetPoint" />
            <Array as="points">
              <mxPoint x="560" y="945" />
              <mxPoint x="620" y="945" />
              <mxPoint x="620" y="1140" />
            </Array>
          </mxGeometry>
        </mxCell>
        <mxCell id="UVezICtJcRIL6f-ogG2M-76" style="edgeStyle=orthogonalEdgeStyle;rounded=0;orthogonalLoop=1;jettySize=auto;html=1;exitX=1;exitY=0.5;exitDx=0;exitDy=0;entryX=0;entryY=0.5;entryDx=0;entryDy=0;" edge="1" parent="1" source="UVezICtJcRIL6f-ogG2M-67" target="UVezICtJcRIL6f-ogG2M-20">
          <mxGeometry relative="1" as="geometry" />
        </mxCell>
        <mxCell id="UVezICtJcRIL6f-ogG2M-67" value="len == 1 || len == 0" style="rhombus;whiteSpace=wrap;html=1;" vertex="1" parent="1">
          <mxGeometry x="500" y="700" width="130" height="120" as="geometry" />
        </mxCell>
        <mxCell id="UVezICtJcRIL6f-ogG2M-74" value="Y" style="text;html=1;align=center;verticalAlign=middle;resizable=0;points=[];autosize=1;strokeColor=none;fillColor=none;" vertex="1" parent="1">
          <mxGeometry x="570" y="830" width="30" height="30" as="geometry" />
        </mxCell>
        <mxCell id="UVezICtJcRIL6f-ogG2M-75" value="N" style="text;html=1;align=center;verticalAlign=middle;resizable=0;points=[];autosize=1;strokeColor=none;fillColor=none;" vertex="1" parent="1">
          <mxGeometry x="630" y="720" width="30" height="30" as="geometry" />
        </mxCell>
      </root>
    </mxGraphModel>
  </diagram>
</mxfile>
